<?xml version="1.0" encoding="UTF-8" standalone="no"?>
<!DOCTYPE svg PUBLIC "-//W3C//DTD SVG 1.1//EN" "http://www.w3.org/Graphics/SVG/1.1/DTD/svg11.dtd">
<svg version="1.1" xmlns="http://www.w3.org/2000/svg" xmlns:xlink="http://www.w3.org/1999/xlink" preserveAspectRatio="xMidYMid meet" viewBox="0 0 640 640" width="640" height="640"><defs><path d="M88.28 11.04C55.18 11.04 36.79 11.04 33.12 11.04C14.83 11.04 0 25.87 0 44.15C0 69.9 0 198.63 0 430.35L88.28 430.35L253.79 430.35L386.21 430.35L551.72 430.35L640 430.35C640 198.63 640 69.9 640 44.15C640 25.87 625.17 11.03 606.89 11.03C603.21 11.03 584.82 11.03 551.72 11.03L88.28 11.04Z" id="a28MzanVhW"></path><path d="M595.86 55.17C595.86 55.17 595.86 55.17 595.86 55.17C595.86 267.03 595.86 384.74 595.86 408.28C595.86 408.28 595.86 408.28 595.86 408.28C264.83 408.28 80.92 408.28 44.14 408.28C44.14 408.28 44.14 408.28 44.14 408.28C44.14 196.41 44.14 78.71 44.14 55.17C44.14 55.17 44.14 55.17 44.14 55.17C375.17 55.17 559.08 55.17 595.86 55.17Z" id="a5Qo1Npuw"></path><path d="M143.45 308.96L406.15 308.96L452.41 262.6L452.41 99.31L143.45 99.31L143.45 308.96Z" id="f1zvVbbhib"></path><path d="M33.12 496.55C14.83 496.55 0 481.72 0 463.44C0 459.76 0 441.37 0 408.28L640 408.28C640 441.37 640 459.76 640 463.44C640 481.72 625.17 496.55 606.89 496.55C492.13 496.55 90.49 496.55 33.12 496.55Z" id="b2TMe1WJ1t"></path><path d="M286.9 463.45C280.81 463.45 275.86 458.51 275.86 452.41C275.86 446.32 280.81 441.38 286.9 441.38C293.52 441.38 346.48 441.38 353.1 441.38C359.2 441.38 364.14 446.32 364.14 452.41C364.14 458.51 359.2 463.45 353.1 463.45C339.86 463.45 293.52 463.45 286.9 463.45Z" id="cppibrVww"></path><path d="M176.55 628.97C164.36 628.97 154.48 619.09 154.48 606.9C154.48 606.9 154.48 606.9 154.48 606.9C154.48 594.7 164.36 584.83 176.55 584.83C205.24 584.83 434.76 584.83 463.45 584.83C475.64 584.83 485.52 594.7 485.52 606.9C485.52 606.9 485.52 606.9 485.52 606.9C485.52 619.09 475.64 628.97 463.45 628.97C406.07 628.97 205.24 628.97 176.55 628.97Z" id="a1NWFVHBjv"></path><path d="M264.83 496.55C264.83 545.35 247.41 584.83 198.62 584.83C222.9 584.83 417.1 584.83 441.38 584.83C392.59 584.83 375.17 545.35 375.17 496.55C353.1 496.55 275.86 496.55 264.83 496.55Z" id="a22LIDE6zE"></path><path d="M475.04 299.53C474.46 298.96 474.46 298.03 475.04 297.46C476.47 296.02 483.67 288.82 496.62 275.86L386.27 242.76L419.38 353.1C432 340.48 439.01 333.47 440.41 332.07C441.72 330.76 443.85 330.76 445.18 332.07C447.31 334.21 458 344.9 477.23 364.14L508.44 332.93C488.4 312.89 477.26 301.76 475.04 299.53Z" id="bBygUydUg"></path><path d="M452.41 99.31C452.41 99.31 452.41 99.31 452.41 99.31C452.41 132.41 452.41 150.8 452.41 154.48C452.41 154.48 452.41 154.48 452.41 154.48C267.03 154.48 164.05 154.48 143.45 154.48C143.45 154.48 143.45 154.48 143.45 154.48C143.45 121.38 143.45 102.99 143.45 99.31C143.45 99.31 143.45 99.31 143.45 99.31C328.83 99.31 431.82 99.31 452.41 99.31Z" id="b4Sgr3egwN"></path><path d="M275.86 220.69C275.86 220.69 275.86 220.69 275.86 220.69C275.86 247.17 275.86 261.89 275.86 264.83C275.86 264.83 275.86 264.83 275.86 264.83C222.9 264.83 193.47 264.83 187.59 264.83C187.59 264.83 187.59 264.83 187.59 264.83C187.59 238.34 187.59 223.63 187.59 220.69C187.59 220.69 187.59 220.69 187.59 220.69C240.55 220.69 269.98 220.69 275.86 220.69Z" id="b7mBcxgtC"></path></defs><g><g><g><use xlink:href="#a28MzanVhW" opacity="0.58" fill="#e7eced" fill-opacity="1"></use><g><use xlink:href="#a28MzanVhW" opacity="0.58" fill-opacity="0" stroke="#000000" stroke-width="1" stroke-opacity="0"></use></g></g><g><use xlink:href="#a5Qo1Npuw" opacity="0.18" fill="#28384c" fill-opacity="1"></use><g><use xlink:href="#a5Qo1Npuw" opacity="0.18" fill-opacity="0" stroke="#000000" stroke-width="1" stroke-opacity="0"></use></g></g><g><use xlink:href="#f1zvVbbhib" opacity="0.39" fill="#e7eced" fill-opacity="1"></use><g><use xlink:href="#f1zvVbbhib" opacity="0.39" fill-opacity="0" stroke="#000000" stroke-width="1" stroke-opacity="0"></use></g></g><g><use xlink:href="#b2TMe1WJ1t" opacity="0.39" fill="#afb6bb" fill-opacity="1"></use><g><use xlink:href="#b2TMe1WJ1t" opacity="0.39" fill-opacity="0" stroke="#000000" stroke-width="1" stroke-opacity="0"></use></g></g><g><use xlink:href="#cppibrVww" opacity="0.39" fill="#ffffff" fill-opacity="1"></use><g><use xlink:href="#cppibrVww" opacity="0.39" fill-opacity="0" stroke="#000000" stroke-width="1" stroke-opacity="0"></use></g></g><g><use xlink:href="#a1NWFVHBjv" opacity="0.39" fill="#afb6bb" fill-opacity="1"></use><g><use xlink:href="#a1NWFVHBjv" opacity="0.39" fill-opacity="0" stroke="#000000" stroke-width="1" stroke-opacity="0"></use></g></g><g><use xlink:href="#a22LIDE6zE" opacity="0.39" fill="#6c797a" fill-opacity="1"></use><g><use xlink:href="#a22LIDE6zE" opacity="0.39" fill-opacity="0" stroke="#000000" stroke-width="1" stroke-opacity="0"></use></g></g><g><use xlink:href="#bBygUydUg" opacity="0.39" fill="#7383bf" fill-opacity="1"></use><g><use xlink:href="#bBygUydUg" opacity="0.39" fill-opacity="0" stroke="#000000" stroke-width="1" stroke-opacity="0"></use></g></g><g><use xlink:href="#b4Sgr3egwN" opacity="0.39" fill="#556080" fill-opacity="1"></use><g><use xlink:href="#b4Sgr3egwN" opacity="0.39" fill-opacity="0" stroke="#000000" stroke-width="1" stroke-opacity="0"></use></g></g><g><use xlink:href="#b7mBcxgtC" opacity="0.39" fill="#dd352e" fill-opacity="1"></use><g><use xlink:href="#b7mBcxgtC" opacity="0.39" fill-opacity="0" stroke="#000000" stroke-width="1" stroke-opacity="0"></use></g></g></g></g></svg>